<svg width="120" height="24" fill="none" xmlns="http://www.w3.org/2000/svg"><g clip-path="url(#clip0_5_92)" fill="#737680"><path d="M38.522 19.39a2.729 2.729 0 01-1.698-.48 1.566 1.566 0 01-.485-.577 1.538 1.538 0 01-.156-.733V8.33a.255.255 0 01.075-.216.265.265 0 01.22-.074h1.708c.194 0 .285.1.285.29v8.55c0 .38.173.57.529.57.15.006.302-.01.447-.05.204 0 .316.06.326.24l.152 1.25a.258.258 0 01-.136.28.269.269 0 01-.108.03 3.896 3.896 0 01-1.159.19zm9.61-1.07a4.84 4.84 0 01-3.05 1.079 4.84 4.84 0 01-3.051-1.079 3.966 3.966 0 01-1.178-2.815c0-1.054.423-2.066 1.178-2.815a4.86 4.86 0 013.05-1.073c1.113 0 2.191.38 3.051 1.073a4.024 4.024 0 011.149 2.81 4.024 4.024 0 01-1.149 2.81v.01zM43.637 17c.399.355.917.551 1.455.551.537 0 1.055-.196 1.454-.551.36-.408.559-.93.559-1.47 0-.54-.199-1.062-.56-1.47a2.186 2.186 0 00-1.453-.551c-.538 0-1.056.196-1.455.551-.36.408-.559.93-.559 1.47 0 .54.199 1.062.56 1.47zm15.051-5.13c.193 0 .285.1.285.29v7.17a3.21 3.21 0 01-.27 1.41 3.261 3.261 0 01-.859 1.16 4.317 4.317 0 01-2.96 1 4.82 4.82 0 01-2.755-.75 3.027 3.027 0 01-.878-.864 2.97 2.97 0 01-.454-1.136c0-.2 0-.29.274-.29h1.709a.38.38 0 01.335.23c.111.304.332.556.62.71a2.42 2.42 0 001.14.26 1.827 1.827 0 001.311-.46 1.698 1.698 0 00.478-1.25v-.63a3.447 3.447 0 01-2.115.65 4.006 4.006 0 01-1.557-.255 3.955 3.955 0 01-1.331-.835 3.965 3.965 0 01-1.143-2.78c0-1.037.41-2.034 1.143-2.78.384-.36.837-.642 1.333-.827a4.037 4.037 0 011.555-.253 3.455 3.455 0 012.166.69v-.16a.257.257 0 01.17-.274.268.268 0 01.115-.016l1.688-.01zm-3.946 5.72a1.816 1.816 0 001.394-.59 2.424 2.424 0 000-3 1.806 1.806 0 00-1.383-.58 1.858 1.858 0 00-1.414.59c-.375.41-.572.949-.55 1.5a2.138 2.138 0 00.54 1.49c.178.193.397.345.641.447.244.102.507.15.772.143zm13.008.73a4.86 4.86 0 01-3.052 1.073 4.86 4.86 0 01-3.05-1.073 4.034 4.034 0 01-1.15-2.815c0-1.049.412-2.057 1.15-2.815a4.87 4.87 0 013.05-1.07c1.112 0 2.19.378 3.051 1.07a4.024 4.024 0 011.149 2.81 4.024 4.024 0 01-1.149 2.81v.01zM63.243 17a2.038 2.038 0 001.465.55 2.066 2.066 0 001.454-.55c.354-.41.55-.931.55-1.47a2.25 2.25 0 00-.55-1.47 2.039 2.039 0 00-1.454-.55 2.064 2.064 0 00-1.465.55c-.355.41-.55.931-.55 1.47 0 .539.195 1.06.55 1.47zm9.327-6.83a1.489 1.489 0 01-1.943 0 1.211 1.211 0 01-.386-.88 1.194 1.194 0 01.386-.88 1.52 1.52 0 011.943 0 1.21 1.21 0 01.385.88 1.192 1.192 0 01-.385.88zm.213 9.22a2.769 2.769 0 01-1.698-.48 1.584 1.584 0 01-.477-.58 1.557 1.557 0 01-.154-.73v-5.44a.255.255 0 01.076-.216.265.265 0 01.22-.074h1.708c.193 0 .284.1.284.29v4.72c0 .38.173.57.519.57a1.6 1.6 0 00.458-.05c.203 0 .315.06.325.24l.153 1.25a.256.256 0 01-.136.28.268.268 0 01-.108.03 3.91 3.91 0 01-1.17.19zm7.698-7.76a4.049 4.049 0 011.566.25c.5.185.956.468 1.343.83a4.063 4.063 0 011.119 2.795 4.06 4.06 0 01-1.12 2.795 4.007 4.007 0 01-2.908 1.09 3.54 3.54 0 01-2.125-.65v3.61c0 .19-.102.28-.295.28h-1.709a.247.247 0 01-.277-.165.235.235 0 01-.007-.115v-8.2a.51.51 0 00-.15-.443.53.53 0 00-.45-.147h-.336c-.224 0-.335-.08-.335-.24v-1.18a.315.315 0 01.057-.206.325.325 0 01.177-.124 3.1 3.1 0 011.098-.18c.373-.033.748.045 1.075.223.328.179.595.449.766.777a3.43 3.43 0 011.15-.755 3.478 3.478 0 011.361-.245zM78.895 17a1.97 1.97 0 002.807 0 2.14 2.14 0 00.559-1.53 2.109 2.109 0 00-.56-1.53 1.945 1.945 0 00-1.403-.59 1.97 1.97 0 00-1.403.59c-.37.425-.563.971-.54 1.53-.02.558.172 1.104.54 1.53zm10.413 2.39a4.968 4.968 0 01-2.613-.62 2.463 2.463 0 01-.795-.753A2.414 2.414 0 0185.515 17c0-.2.071-.3.295-.3h1.495a.39.39 0 01.336.22c.213.54.773.81 1.667.81a1.93 1.93 0 00.906-.18.588.588 0 00.345-.49c0-.26-.162-.44-.488-.56a5.584 5.584 0 00-1.19-.25c-.48-.053-.955-.137-1.423-.25a2.348 2.348 0 01-1.19-.67 2.129 2.129 0 01-.467-1.643 2.128 2.128 0 01.904-1.457 4.244 4.244 0 012.461-.64 4.556 4.556 0 012.4.59 2.222 2.222 0 011.119 1.57c0 .2-.092.3-.275.3h-1.505a.32.32 0 01-.305-.18c-.1-.237-.29-.427-.529-.53a1.815 1.815 0 00-.874-.2 1.796 1.796 0 00-.865.17.507.507 0 00-.325.46.634.634 0 00.145.374.653.653 0 00.343.216c.39.145.796.245 1.21.3.476.062.948.148 1.414.26.455.101.87.335 1.19.67a1.887 1.887 0 01.498 1.37 1.98 1.98 0 01-.24.993 2.008 2.008 0 01-.706.747 4.5 4.5 0 01-2.553.69zm14.248-.5a.274.274 0 01-.004.107.272.272 0 01-.127.168.279.279 0 01-.103.035c-.371.12-.759.183-1.149.19a2.29 2.29 0 01-1.133-.172 2.246 2.246 0 01-.901-.698 3.721 3.721 0 01-2.593.87c-.44.02-.878-.05-1.288-.207a3.158 3.158 0 01-1.092-.703 3.272 3.272 0 01-.702-1.114 3.232 3.232 0 01-.203-1.296v-3.91c0-.19.092-.29.285-.29h1.708c.194 0 .285.1.285.29v3.61c-.019.45.138.89.437 1.23a1.526 1.526 0 001.17.47 1.715 1.715 0 001.22-.44 1.596 1.596 0 00.458-1.19v-3.68c0-.19.091-.29.284-.29h1.729c.194 0 .285.1.285.29v4.71c0 .39.173.58.509.58.157.006.315-.01.467-.05a.27.27 0 01.227.04.243.243 0 01.077.088c.02.034.03.073.032.112l.122 1.25zm16.159 0c.009.036.01.073.003.11a.253.253 0 01-.237.2 4 4 0 01-1.169.19 2.748 2.748 0 01-1.698-.48 1.565 1.565 0 01-.508-.571 1.535 1.535 0 01-.174-.739v-2.35a1.748 1.748 0 00-.427-1.23 1.444 1.444 0 00-1.139-.47 1.293 1.293 0 00-1.017.44 1.758 1.758 0 00-.386 1.18v3.69c0 .19-.092.29-.285.29h-1.719a.266.266 0 01-.282-.173.244.244 0 01-.013-.117v-3.61a1.83 1.83 0 00-.396-1.23 1.335 1.335 0 00-1.017-.47 1.496 1.496 0 00-1.119.44c-.291.324-.44.748-.417 1.18v3.69a.256.256 0 01-.177.278.265.265 0 01-.118.012h-1.657c-.193 0-.285-.1-.285-.29v-4.71a.51.51 0 00-.149-.443.532.532 0 00-.451-.147h-.336c-.223 0-.335-.08-.335-.24v-1.18a.325.325 0 01.234-.33 3.098 3.098 0 011.098-.18c.359-.03.72.04 1.04.203.321.163.587.411.77.717a3.45 3.45 0 011.194-.725 3.49 3.49 0 011.389-.195 2.96 2.96 0 011.334.247c.418.184.788.462 1.076.813.337-.36.751-.641 1.212-.825.46-.183.957-.263 1.453-.235a3.23 3.23 0 012.41.91 3.221 3.221 0 01.905 2.41v1.93c0 .38.173.57.498.57.158.007.316-.01.468-.05.211 0 .323.08.336.24l.091 1.25zM.468 10.57a13.672 13.672 0 014.936-7.48A14.074 14.074 0 0113.978.185c3.107 0 6.126 1.023 8.574 2.905a13.672 13.672 0 014.936 7.48h-1.22a9.973 9.973 0 00-5.766 1.73c-.098.07-.2.133-.305.19h-.143a2.905 2.905 0 01-.305-.19 10.467 10.467 0 00-5.771-1.73c-2.056 0-4.065.602-5.771 1.73-.098.07-.2.133-.305.19h-.143a2.904 2.904 0 01-.305-.19 9.973 9.973 0 00-5.766-1.73H.468zm23.603 6.27a3.466 3.466 0 012.197-.71h1.637v-3.21h-1.637a6.564 6.564 0 00-3.895 1.22 3.744 3.744 0 01-2.197.71c-.79 0-1.56-.249-2.196-.71a6.997 6.997 0 00-3.951-1.219 6.997 6.997 0 00-3.951 1.219 3.744 3.744 0 01-2.197.71c-.79 0-1.56-.249-2.196-.71a6.565 6.565 0 00-3.946-1.22H.05v3.21h1.637a3.47 3.47 0 012.197.71 6.976 6.976 0 003.945 1.22 6.976 6.976 0 003.946-1.22 3.487 3.487 0 012.197-.71 3.445 3.445 0 012.196.71 6.997 6.997 0 003.951 1.22 6.996 6.996 0 003.951-1.22zm0 5.74a3.466 3.466 0 012.197-.71h1.637v-3.21h-1.637a6.564 6.564 0 00-3.895 1.22 3.744 3.744 0 01-2.197.71c-.79 0-1.56-.249-2.196-.71a6.997 6.997 0 00-3.951-1.219 6.997 6.997 0 00-3.951 1.219 3.744 3.744 0 01-2.197.71c-.79 0-1.56-.249-2.196-.71a6.565 6.565 0 00-3.946-1.22H.05v3.21h1.637a3.47 3.47 0 012.197.71A6.976 6.976 0 007.83 23.8a6.976 6.976 0 003.946-1.22 3.487 3.487 0 012.197-.71 3.445 3.445 0 012.196.71 6.997 6.997 0 003.951 1.22 6.996 6.996 0 003.951-1.22z"/></g><defs><clipPath id="clip0_5_92"><path fill="#fff" d="M0 0h120v24H0z"/></clipPath></defs></svg>