<svg width="120" height="28" fill="none" xmlns="http://www.w3.org/2000/svg"><g clip-path="url(#clip0_5_59)" fill="#737680"><path d="M28.91 6.767h2.77v13.486h-2.77V6.767zm4.32 8.866c0-.97.286-1.918.82-2.725a4.858 4.858 0 012.179-1.804 4.795 4.795 0 012.804-.274 4.83 4.83 0 012.48 1.348 4.917 4.917 0 011.32 2.517 4.95 4.95 0 01-.287 2.833 4.889 4.889 0 01-1.797 2.193c-.8.535-1.74.818-2.7.812a4.737 4.737 0 01-1.856-.363 4.778 4.778 0 01-1.572-1.062 4.84 4.84 0 01-1.042-1.596 4.88 4.88 0 01-.348-1.879zm6.942 0a2.144 2.144 0 00-.381-1.166 2.109 2.109 0 00-.956-.76 2.083 2.083 0 00-2.274.497 2.15 2.15 0 00-.432 2.312c.161.386.43.715.775.946.345.232.75.355 1.164.355a2.03 2.03 0 001.514-.632 2.076 2.076 0 00.572-1.552h.018zm13.653-4.62v8.783c0 3.099-2.4 4.415-4.828 4.415a4.572 4.572 0 01-2.48-.497 4.636 4.636 0 01-1.85-1.743l2.336-1.363c.19.386.49.704.863.912.373.209.8.298 1.223.255a1.827 1.827 0 001.495-.497 1.868 1.868 0 00.573-1.482v-.85a3.262 3.262 0 01-1.194.917 3.227 3.227 0 01-1.474.278 4.59 4.59 0 01-3.263-1.366 4.693 4.693 0 01-1.352-3.3 4.69 4.69 0 011.352-3.3 4.59 4.59 0 013.263-1.367 3.227 3.227 0 011.474.279 3.26 3.26 0 011.194.916v-.934l2.668-.056zm-2.668 4.434a2.258 2.258 0 00-.328-1.27 2.224 2.224 0 00-.974-.865 2.194 2.194 0 00-2.444.424 2.262 2.262 0 00-.523 2.451c.164.415.448.77.814 1.021a2.2 2.2 0 001.24.385 2.048 2.048 0 001.579-.576 2.093 2.093 0 00.636-1.57zm4.228.186c0-.97.284-1.917.817-2.723a4.857 4.857 0 012.176-1.805 4.795 4.795 0 012.802-.277 4.83 4.83 0 012.48 1.344 4.917 4.917 0 011.325 2.511 4.95 4.95 0 01-.28 2.832 4.889 4.889 0 01-1.789 2.197 4.81 4.81 0 01-2.694.821 4.744 4.744 0 01-1.86-.36 4.787 4.787 0 01-1.578-1.061 4.85 4.85 0 01-1.047-1.597 4.892 4.892 0 01-.352-1.882zm6.941 0a2.145 2.145 0 00-.382-1.167 2.108 2.108 0 00-.957-.76 2.081 2.081 0 00-2.275.502 2.15 2.15 0 00-.426 2.315c.162.385.433.713.779.944.346.23.752.352 1.166.35a2.028 2.028 0 001.514-.632 2.076 2.076 0 00.572-1.552h.01zm4.016-7.093a1.656 1.656 0 011.014-1.535 1.627 1.627 0 011.79.36 1.678 1.678 0 01.356 1.81 1.658 1.658 0 01-.605.746 1.63 1.63 0 01-.912.28 1.652 1.652 0 01-1.157-.492 1.69 1.69 0 01-.486-1.169zm.267 2.473h2.77v9.24h-2.77v-9.24zm14.621 4.62a4.715 4.715 0 01-1.193 3.377 4.62 4.62 0 01-1.454 1.085 4.57 4.57 0 01-1.755.438 3.4 3.4 0 01-1.513-.244 3.435 3.435 0 01-1.257-.885v4.564H71.29V11.013h2.77v.868a3.425 3.425 0 011.257-.88 3.39 3.39 0 011.512-.24c.605.028 1.2.176 1.748.436a4.62 4.62 0 011.451 1.078 4.71 4.71 0 011.204 3.358zm-2.768 0a2.219 2.219 0 00-.395-1.209 2.181 2.181 0 00-.99-.786 2.155 2.155 0 00-2.356.517 2.225 2.225 0 00-.442 2.396c.168.4.448.74.806.978.359.238.779.365 1.207.363a2.065 2.065 0 001.585-.638 2.113 2.113 0 00.585-1.62zm11.197 1.848c0 2.128-1.847 3.034-3.804 3.034a3.97 3.97 0 01-2.3-.492 4.03 4.03 0 01-1.632-1.711l2.382-1.363c.094.333.298.623.58.822.28.2.62.294.961.27.656 0 .988-.205.988-.578 0-1.018-4.496-.476-4.496-3.678 0-2.016 1.68-3.024 3.582-3.024a3.97 3.97 0 012.078.48c.637.347 1.17.862 1.54 1.49L87.157 14a1.358 1.358 0 00-.495-.59 1.337 1.337 0 00-.733-.222c-.48 0-.766.187-.766.513 0 1.064 4.496.364 4.496 3.78zm10.033-6.468v9.24h-2.769v-.868a3.16 3.16 0 01-1.166.888 3.1 3.1 0 01-1.437.26c-1.846 0-3.425-1.334-3.425-3.826v-5.694h2.77v5.274a1.536 1.536 0 00.955 1.577c.204.081.423.116.641.103.998 0 1.699-.598 1.699-1.867v-5.087h2.732zm15.693 3.566v5.674h-2.77v-5.432c0-.933-.433-1.512-1.31-1.512s-1.431.644-1.431 1.736v5.208h-2.769v-5.432c0-.933-.434-1.512-1.311-1.512s-1.431.644-1.431 1.736v5.208h-2.769v-9.24h2.769v.85a2.83 2.83 0 011.09-.865 2.798 2.798 0 011.365-.237 2.684 2.684 0 012.391 1.214 3.02 3.02 0 011.171-.952 2.975 2.975 0 011.478-.262c2.16 0 3.527 1.512 3.527 3.818zM12.415 4.34V.373H.046v27.254h12.37V23.66a9.501 9.501 0 01-6.756-2.83A9.715 9.715 0 012.862 14 9.715 9.715 0 015.66 7.17a9.501 9.501 0 016.755-2.83z"/><path d="M12.415 4.34v19.32a9.5 9.5 0 006.756-2.83A9.715 9.715 0 0021.969 14a9.715 9.715 0 00-2.798-6.83 9.5 9.5 0 00-6.756-2.83zm105.296 6.617c1.121 0 2.031-.919 2.031-2.053s-.91-2.053-2.031-2.053c-1.122 0-2.031.919-2.031 2.053s.909 2.053 2.031 2.053z"/></g><defs><clipPath id="clip0_5_59"><path fill="#fff" d="M0 0h120v28H0z"/></clipPath></defs></svg>