<svg width="120" height="25" fill="none" xmlns="http://www.w3.org/2000/svg"><g clip-path="url(#clip0_5_78)" fill="#737680"><path d="M18.017 11.046a3.288 3.288 0 00-.923 2.615l-.016-.016a3.922 3.922 0 01-.22 1.658 3.887 3.887 0 01-.89 1.41 3.83 3.83 0 01-1.393.9 3.791 3.791 0 01-1.639.223l.016.016a3.214 3.214 0 00-1.912.419 3.27 3.27 0 00-1.326 1.455 3.32 3.32 0 00.643 3.719 3.233 3.233 0 001.737.912 3.21 3.21 0 001.939-.264 3.26 3.26 0 001.437-1.343 3.316 3.316 0 00.412-1.936l.017.016a3.92 3.92 0 01.22-1.658c.191-.53.495-1.011.89-1.41a3.791 3.791 0 013.033-1.122l-.018-.017c.543.05 1.09-.04 1.59-.262a3.233 3.233 0 001.267-1.004 3.312 3.312 0 00.477-3.119 3.277 3.277 0 00-.909-1.344 3.202 3.202 0 00-3.046-.68c-.523.154-.999.44-1.384.832h-.002zm-6.509 4.7l-.017-.016a3.17 3.17 0 002.586-.932A3.276 3.276 0 0015 12.182l.017.016a3.923 3.923 0 01.22-1.658c.191-.53.495-1.011.889-1.41a3.8 3.8 0 011.394-.9 3.79 3.79 0 011.639-.223l-.017-.016a3.214 3.214 0 001.913-.418 3.27 3.27 0 001.327-1.454 3.318 3.318 0 00-.642-3.72 3.21 3.21 0 00-3.676-.65 3.26 3.26 0 00-1.437 1.344 3.317 3.317 0 00-.413 1.936l-.016-.017A3.918 3.918 0 0115.09 8.08c-.395.399-.87.706-1.394.9a3.792 3.792 0 01-1.64.222l.016.017a3.17 3.17 0 00-2.585.932 3.25 3.25 0 00-.923 2.616l-.017-.016a3.923 3.923 0 01-.22 1.658 3.886 3.886 0 01-.889 1.41 3.83 3.83 0 01-1.394.9 3.794 3.794 0 01-1.638.223l.016.016a3.213 3.213 0 00-1.913.418A3.27 3.27 0 001.18 18.83a3.32 3.32 0 00.642 3.72 3.21 3.21 0 003.676.65 3.26 3.26 0 001.437-1.344 3.316 3.316 0 00.413-1.935l.017.015a3.921 3.921 0 01.22-1.658c.191-.53.495-1.011.889-1.41a3.8 3.8 0 011.394-.9 3.79 3.79 0 011.639-.223zm-5.914-1.792a3.287 3.287 0 00.922-2.615l.017.016a3.921 3.921 0 01.22-1.659 3.868 3.868 0 012.284-2.31 3.791 3.791 0 011.64-.222l-.017-.016a3.213 3.213 0 001.912-.418 3.269 3.269 0 001.327-1.454 3.319 3.319 0 00-.642-3.718 3.21 3.21 0 00-3.674-.65 3.26 3.26 0 00-1.438 1.343 3.315 3.315 0 00-.413 1.935l-.016-.016a3.921 3.921 0 01-.22 1.658 3.885 3.885 0 01-.889 1.41 3.8 3.8 0 01-1.394.9 3.791 3.791 0 01-1.639.223l.016.016a3.19 3.19 0 00-1.589.262A3.252 3.252 0 00.733 9.643a3.314 3.314 0 00-.476 3.119c.187.518.5.98.91 1.345a3.203 3.203 0 003.046.68 3.236 3.236 0 001.383-.833h-.002zM32.927 5.05h2.62v12.904h-2.62V5.049zm4.105 8.485a4.724 4.724 0 01.77-2.608 4.642 4.642 0 012.075-1.734 4.58 4.58 0 012.676-.274c.9.179 1.726.623 2.375 1.278a4.703 4.703 0 011.273 2.398c.18.91.09 1.852-.26 2.71a4.674 4.674 0 01-1.706 2.105 4.591 4.591 0 01-2.574.79 4.532 4.532 0 01-1.775-.34 4.574 4.574 0 01-1.507-1.009 4.634 4.634 0 01-1.004-1.52 4.679 4.679 0 01-.343-1.796zm6.638 0a2.05 2.05 0 00-.365-1.115 2.014 2.014 0 00-.913-.724 1.988 1.988 0 00-2.172.477 2.056 2.056 0 00-.41 2.21c.153.368.41.682.74.903.33.221.716.339 1.111.339a1.938 1.938 0 001.457-.6 1.987 1.987 0 00.552-1.49zm13.065-4.42v8.393c0 2.97-2.288 4.225-4.612 4.225a4.422 4.422 0 01-2.367-.483 4.488 4.488 0 01-1.773-1.66l2.236-1.308c.18.369.468.673.824.872.356.2.763.283 1.168.242a1.72 1.72 0 001.435-.466 1.762 1.762 0 00.538-1.425v-.809a3.073 3.073 0 01-2.55 1.15 4.415 4.415 0 01-3.049-1.364 4.52 4.52 0 01-1.25-3.126 4.52 4.52 0 011.25-3.126 4.415 4.415 0 013.048-1.364 3.07 3.07 0 011.411.268c.443.2.834.501 1.14.881v-.902l2.551.002zm-2.55 4.242a2.163 2.163 0 00-.313-1.214 2.125 2.125 0 00-.932-.829 2.094 2.094 0 00-2.337.408 2.166 2.166 0 00-.497 2.347c.157.397.43.737.78.976a2.1 2.1 0 001.186.366 1.954 1.954 0 001.507-.553 2.001 2.001 0 00.606-1.5zm4.035.178a4.724 4.724 0 01.77-2.608 4.643 4.643 0 012.075-1.734 4.58 4.58 0 012.676-.274c.9.179 1.726.623 2.375 1.278a4.702 4.702 0 011.272 2.398c.18.91.09 1.852-.26 2.71a4.673 4.673 0 01-1.705 2.105 4.592 4.592 0 01-2.574.79 4.532 4.532 0 01-1.775-.34 4.576 4.576 0 01-1.508-1.009 4.636 4.636 0 01-1.003-1.52 4.68 4.68 0 01-.344-1.796zm6.638 0a2.052 2.052 0 00-.365-1.115 2.015 2.015 0 00-.913-.724 1.988 1.988 0 00-2.172.477 2.056 2.056 0 00-.41 2.21c.153.368.41.682.74.903.33.221.716.339 1.111.339a1.938 1.938 0 001.457-.6 1.987 1.987 0 00.552-1.49zM68.7 6.746c0-.314.093-.622.266-.884.173-.261.418-.465.706-.586a1.555 1.555 0 011.713.345 1.597 1.597 0 01.341 1.734c-.119.291-.32.54-.58.714a1.559 1.559 0 01-.873.268 1.58 1.58 0 01-1.107-.47c-.294-.298-.46-.7-.465-1.12zm.266 2.37h2.621v8.838h-2.625l.004-8.839zm13.936 4.419a4.486 4.486 0 01-1.129 3.211 4.389 4.389 0 01-1.38 1.035 4.323 4.323 0 01-1.666.42 3.243 3.243 0 01-1.421-.243 3.276 3.276 0 01-1.181-.836v4.367h-2.62V9.115h2.62v.83a3.28 3.28 0 011.181-.835 3.25 3.25 0 011.421-.242 4.371 4.371 0 013.047 1.454 4.485 4.485 0 011.128 3.212zm-2.62 0a2.12 2.12 0 00-.376-1.154 2.083 2.083 0 00-.943-.752 2.055 2.055 0 00-2.248.49 2.126 2.126 0 00-.427 2.286c.159.381.425.707.766.935.341.23.74.351 1.15.351a1.972 1.972 0 001.516-.607 2.02 2.02 0 00.562-1.55zm10.708 1.767c0 2.033-1.747 2.899-3.633 2.899a3.788 3.788 0 01-2.198-.468 3.851 3.851 0 01-1.559-1.636l2.27-1.308c.093.32.29.597.56.787.27.19.595.28.923.256.628 0 .943-.195.943-.547 0-.973-4.298-.46-4.298-3.518 0-1.928 1.608-2.9 3.425-2.9a3.783 3.783 0 011.958.475 3.846 3.846 0 011.448 1.417l-2.236 1.22a1.279 1.279 0 00-.47-.567 1.257 1.257 0 00-.7-.211c-.455 0-.734.178-.734.494.003 1.009 4.3.336 4.3 3.607zm9.572-6.187v8.84h-2.62v-.832a2.99 2.99 0 01-1.121.843 2.952 2.952 0 01-1.377.236c-1.765 0-3.265-1.273-3.265-3.66V9.114H94.8v5.038a1.468 1.468 0 00.392 1.16 1.438 1.438 0 001.127.447c.961 0 1.625-.565 1.625-1.82V9.117l2.618-.003zm15.026 3.412v5.427h-2.62v-5.198c0-.884-.419-1.449-1.258-1.449-.873 0-1.363.619-1.363 1.662v4.985h-2.62v-5.198c0-.884-.419-1.449-1.258-1.449-.873 0-1.362.619-1.362 1.662v4.985h-2.621v-8.84h2.621v.813c.272-.36.628-.647 1.037-.832a2.654 2.654 0 011.304-.228 2.583 2.583 0 012.288 1.166 2.875 2.875 0 012.533-1.166c2.005 0 3.319 1.45 3.319 3.66zm2.217-3.467a1.956 1.956 0 001.944-1.967c0-1.087-.87-1.968-1.944-1.968a1.957 1.957 0 00-1.945 1.968c0 1.087.871 1.968 1.945 1.968z"/></g><defs><clipPath id="clip0_5_78"><path fill="#fff" d="M0 0h120v25H0z"/></clipPath></defs></svg>