<svg width="120" height="28" fill="none" xmlns="http://www.w3.org/2000/svg"><g clip-path="url(#clip0_5_72)" fill="#737680"><path d="M34.228 8.643h3.01v12.133h-3.01V8.643zm4.21 7.569c0-3.005 1.874-4.807 4.687-4.807s4.688 1.802 4.688 4.807c0 3.005-1.81 4.825-4.688 4.825-2.878 0-4.688-1.754-4.688-4.825zm6.393 0c0-1.652-.647-2.623-1.678-2.623s-1.669.934-1.669 2.623c0 1.69.638 2.613 1.67 2.613 1.03 0 1.696-.924 1.696-2.604l-.019-.009zm4.181 5.19h2.907a1.552 1.552 0 001.631.933c1.153 0 1.753-.616 1.753-1.531v-1.68h.01a2.87 2.87 0 01-1.152 1.25 2.888 2.888 0 01-1.661.383c-2.203 0-3.666-1.67-3.666-4.545s1.397-4.667 3.75-4.667a2.888 2.888 0 011.688.437c.504.316.897.78 1.125 1.327h-.084V11.62h2.98v9.09c0 2.194-1.95 3.566-4.818 3.566-2.606-.01-4.275-1.195-4.444-2.865l-.018-.01zm6.3-5.19c0-1.465-.674-2.39-1.743-2.39s-1.725.934-1.725 2.39.647 2.315 1.725 2.315 1.743-.794 1.743-2.315zm4.172 0c0-3.005 1.875-4.807 4.688-4.807 2.812 0 4.687 1.802 4.687 4.807 0 3.005-1.818 4.825-4.687 4.825s-4.669-1.754-4.669-4.825h-.019zm6.394 0c0-1.652-.656-2.623-1.678-2.623-1.022 0-1.669.934-1.669 2.623 0 1.69.638 2.613 1.669 2.613 1.031 0 1.697-.924 1.697-2.604l-.019-.009zm4.2-6.804a1.525 1.525 0 01.902-1.46 1.544 1.544 0 011.697.289 1.53 1.53 0 01.364 1.675 1.532 1.532 0 01-1.425.961 1.489 1.489 0 01-1.065-.412 1.473 1.473 0 01-.454-1.044l-.019-.009zm0 2.203h3.047v9.202h-3l-.047-9.202zm14.006 4.601c0 2.996-1.35 4.732-3.647 4.732a2.888 2.888 0 01-1.675-.414 2.87 2.87 0 01-1.137-1.294h-.056v4.536h-3.01V11.639h2.991v1.642h.056a2.887 2.887 0 011.125-1.329 2.906 2.906 0 011.688-.444c2.362-.019 3.722 1.708 3.722 4.713l-.057-.009zm-3.065 0c0-1.456-.685-2.399-1.744-2.399-1.06 0-1.725.934-1.734 2.399-.01 1.465.675 2.39 1.734 2.39 1.06 0 1.8-.869 1.8-2.38l-.056-.01zm8.203-4.816c2.522 0 4.087 1.185 4.106 3.09h-2.747c0-.663-.553-1.074-1.378-1.074-.825 0-1.219.317-1.219.793 0 .476.347.626 1.041.766l1.931.392c1.875.392 2.625 1.138 2.625 2.529 0 1.867-1.734 3.136-4.312 3.136-2.578 0-4.257-1.232-4.378-3.108h2.915c.085.681.628 1.083 1.51 1.083.88 0 1.293-.28 1.293-.775s-.28-.579-1.003-.728l-1.743-.364c-1.81-.383-2.757-1.325-2.757-2.735.056-1.829 1.632-2.996 4.172-2.996l-.056-.009zm14.437 9.408h-2.915v-1.727h-.056a2.635 2.635 0 01-1.008 1.427c-.49.348-1.083.52-1.683.487a3.228 3.228 0 01-2.434-.993 3.194 3.194 0 01-.876-2.47V11.62h3.01v5.264c0 1.083.572 1.67 1.51 1.67a1.545 1.545 0 001.155-.534 1.52 1.52 0 00.354-1.22v-5.18h3l-.057 9.184zm1.454-9.193h2.925v1.773h.065a2.665 2.665 0 01.985-1.418 2.69 2.69 0 011.65-.523 2.407 2.407 0 011.663.48c.475.361.797.885.905 1.47h.132a2.796 2.796 0 011.073-1.45 2.82 2.82 0 011.739-.5 2.935 2.935 0 012.217.888 2.91 2.91 0 01.811 2.238v6.244h-3.028v-5.478c0-.934-.441-1.456-1.294-1.456a1.318 1.318 0 00-1.278.927c-.054.18-.069.37-.044.557v5.45h-2.868v-5.506c0-.934-.46-1.428-1.285-1.428a1.347 1.347 0 00-1.013.448 1.339 1.339 0 00-.327 1.054v5.432h-3.01l-.018-9.202zM28.275 9.436a9.193 9.193 0 00-1.616-5.205A9.256 9.256 0 0022.373.842a9.301 9.301 0 00-5.46-.388 9.272 9.272 0 00-4.726 2.747H.488v24.584h24.704V16.296a9.217 9.217 0 002.277-3.103 9.177 9.177 0 00.807-3.757zm-4.753 0a4.49 4.49 0 01-.757 2.502 4.515 4.515 0 01-2.026 1.66 4.538 4.538 0 01-4.928-.968 4.48 4.48 0 01-.984-4.904 4.503 4.503 0 011.665-2.02 4.533 4.533 0 015.703.555 4.488 4.488 0 011.327 3.175zm-3.084 13.617H5.24V7.933h4.63a8.912 8.912 0 00-.14 1.503 9.22 9.22 0 002.719 6.524 9.303 9.303 0 006.553 2.707 9.19 9.19 0 001.434-.122v4.508z"/></g><defs><clipPath id="clip0_5_72"><path fill="#fff" d="M0 0h120v28H0z"/></clipPath></defs></svg>