<svg width="20" height="20" fill="none" xmlns="http://www.w3.org/2000/svg"><g clip-path="url(#clip0_5_425)"><path d="M9.07.645a.992.992 0 011.86 0l2.028 5.072c.145.362.473.61.849.641l5.266.44c.892.074 1.254 1.232.574 1.837l-4.012 3.574a1.071 1.071 0 00-.324 1.038l1.225 5.343c.208.906-.74 1.622-1.503 1.136l-4.508-2.863a.973.973 0 00-1.05 0l-4.508 2.863c-.764.486-1.711-.23-1.503-1.136l1.225-5.343a1.071 1.071 0 00-.324-1.038L.353 8.635c-.68-.605-.318-1.763.574-1.838l5.266-.439a1.01 1.01 0 00.85-.64L9.07.644z" fill="#CF6F49"/></g><defs><clipPath id="clip0_5_425"><path fill="#fff" d="M0 0h20v20H0z"/></clipPath></defs></svg>