<?xml version="1.0" encoding="utf-8"?><svg viewBox="0 0 135 147" xmlns="http://www.w3.org/2000/svg" xmlns:xlink="http://www.w3.org/1999/xlink"><style>:root>svg{display:none}:root>svg:target{display:block}</style><svg fill="none" viewBox="0 0 120 28" id="comp1" xmlns="http://www.w3.org/2000/svg"><g clip-path="url(#aa)" fill="#737680"><path d="M28.91 6.767h2.77v13.486h-2.77V6.767zm4.32 8.866c0-.97.286-1.918.82-2.725a4.858 4.858 0 0 1 2.179-1.804 4.795 4.795 0 0 1 2.804-.274 4.83 4.83 0 0 1 2.48 1.348 4.917 4.917 0 0 1 1.32 2.517 4.95 4.95 0 0 1-.287 2.833 4.889 4.889 0 0 1-1.797 2.193c-.8.535-1.74.818-2.7.812a4.737 4.737 0 0 1-1.856-.363 4.778 4.778 0 0 1-1.572-1.062 4.84 4.84 0 0 1-1.042-1.596 4.88 4.88 0 0 1-.348-1.879zm6.942 0a2.144 2.144 0 0 0-.381-1.166 2.109 2.109 0 0 0-.956-.76 2.083 2.083 0 0 0-2.274.497 2.15 2.15 0 0 0-.432 2.312c.161.386.43.715.775.946.345.232.75.355 1.164.355a2.03 2.03 0 0 0 1.514-.632 2.076 2.076 0 0 0 .572-1.552h.018zm13.653-4.62v8.783c0 3.099-2.4 4.415-4.828 4.415a4.572 4.572 0 0 1-2.48-.497 4.636 4.636 0 0 1-1.85-1.743l2.336-1.363c.19.386.49.704.863.912.373.209.8.298 1.223.255a1.827 1.827 0 0 0 1.495-.497 1.868 1.868 0 0 0 .573-1.482v-.85a3.262 3.262 0 0 1-1.194.917 3.227 3.227 0 0 1-1.474.278 4.59 4.59 0 0 1-3.263-1.366 4.693 4.693 0 0 1-1.352-3.3 4.69 4.69 0 0 1 1.352-3.3 4.59 4.59 0 0 1 3.263-1.367 3.227 3.227 0 0 1 1.474.279 3.26 3.26 0 0 1 1.194.916v-.934l2.668-.056zm-2.668 4.434a2.258 2.258 0 0 0-.328-1.27 2.224 2.224 0 0 0-.974-.865 2.194 2.194 0 0 0-2.444.424 2.262 2.262 0 0 0-.523 2.451c.164.415.448.77.814 1.021a2.2 2.2 0 0 0 1.24.385 2.048 2.048 0 0 0 1.579-.576 2.093 2.093 0 0 0 .636-1.57zm4.228.186c0-.97.284-1.917.817-2.723a4.857 4.857 0 0 1 2.176-1.805 4.795 4.795 0 0 1 2.802-.277 4.83 4.83 0 0 1 2.48 1.344 4.917 4.917 0 0 1 1.325 2.511 4.95 4.95 0 0 1-.28 2.832 4.889 4.889 0 0 1-1.789 2.197 4.81 4.81 0 0 1-2.694.821 4.744 4.744 0 0 1-1.86-.36 4.787 4.787 0 0 1-1.578-1.061 4.85 4.85 0 0 1-1.047-1.597 4.892 4.892 0 0 1-.352-1.882zm6.941 0a2.145 2.145 0 0 0-.382-1.167 2.108 2.108 0 0 0-.957-.76 2.081 2.081 0 0 0-2.275.502 2.15 2.15 0 0 0-.426 2.315c.162.385.433.713.779.944.346.23.752.352 1.166.35a2.028 2.028 0 0 0 1.514-.632 2.076 2.076 0 0 0 .572-1.552h.01zm4.016-7.093a1.656 1.656 0 0 1 1.014-1.535 1.627 1.627 0 0 1 1.79.36 1.678 1.678 0 0 1 .356 1.81 1.658 1.658 0 0 1-.605.746 1.63 1.63 0 0 1-.912.28 1.652 1.652 0 0 1-1.157-.492 1.69 1.69 0 0 1-.486-1.169zm.267 2.473h2.77v9.24h-2.77v-9.24zm14.621 4.62a4.715 4.715 0 0 1-1.193 3.377 4.62 4.62 0 0 1-1.454 1.085 4.57 4.57 0 0 1-1.755.438 3.4 3.4 0 0 1-1.513-.244 3.435 3.435 0 0 1-1.257-.885v4.564H71.29V11.013h2.77v.868a3.425 3.425 0 0 1 1.257-.88 3.39 3.39 0 0 1 1.512-.24c.605.028 1.2.176 1.748.436a4.62 4.62 0 0 1 1.451 1.078 4.71 4.71 0 0 1 1.204 3.358zm-2.768 0a2.219 2.219 0 0 0-.395-1.209 2.181 2.181 0 0 0-.99-.786 2.155 2.155 0 0 0-2.356.517 2.225 2.225 0 0 0-.442 2.396c.168.4.448.74.806.978.359.238.779.365 1.207.363a2.065 2.065 0 0 0 1.585-.638 2.113 2.113 0 0 0 .585-1.62zm11.197 1.848c0 2.128-1.847 3.034-3.804 3.034a3.97 3.97 0 0 1-2.3-.492 4.03 4.03 0 0 1-1.632-1.711l2.382-1.363c.094.333.298.623.58.822.28.2.62.294.961.27.656 0 .988-.205.988-.578 0-1.018-4.496-.476-4.496-3.678 0-2.016 1.68-3.024 3.582-3.024a3.97 3.97 0 0 1 2.078.48c.637.347 1.17.862 1.54 1.49L87.157 14a1.358 1.358 0 0 0-.495-.59 1.337 1.337 0 0 0-.733-.222c-.48 0-.766.187-.766.513 0 1.064 4.496.364 4.496 3.78zm10.033-6.468v9.24h-2.769v-.868a3.16 3.16 0 0 1-1.166.888 3.1 3.1 0 0 1-1.437.26c-1.846 0-3.425-1.334-3.425-3.826v-5.694h2.77v5.274a1.536 1.536 0 0 0 .955 1.577c.204.081.423.116.641.103.998 0 1.699-.598 1.699-1.867v-5.087h2.732zm15.693 3.566v5.674h-2.77v-5.432c0-.933-.433-1.512-1.31-1.512s-1.431.644-1.431 1.736v5.208h-2.769v-5.432c0-.933-.434-1.512-1.311-1.512s-1.431.644-1.431 1.736v5.208h-2.769v-9.24h2.769v.85a2.83 2.83 0 0 1 1.09-.865 2.798 2.798 0 0 1 1.365-.237 2.684 2.684 0 0 1 2.391 1.214 3.02 3.02 0 0 1 1.171-.952 2.975 2.975 0 0 1 1.478-.262c2.16 0 3.527 1.512 3.527 3.818zM12.415 4.34V.373H.046v27.254h12.37V23.66a9.501 9.501 0 0 1-6.756-2.83A9.715 9.715 0 0 1 2.862 14 9.715 9.715 0 0 1 5.66 7.17a9.501 9.501 0 0 1 6.755-2.83z"/><path d="M12.415 4.34v19.32a9.5 9.5 0 0 0 6.756-2.83A9.715 9.715 0 0 0 21.969 14a9.715 9.715 0 0 0-2.798-6.83 9.5 9.5 0 0 0-6.756-2.83zm105.296 6.617c1.121 0 2.031-.919 2.031-2.053s-.91-2.053-2.031-2.053c-1.122 0-2.031.919-2.031 2.053s.909 2.053 2.031 2.053z"/></g><defs><clipPath id="aa"><path fill="#fff" d="M0 0h120v28H0z"/></clipPath></defs></svg><svg fill="none" viewBox="0 0 120 28" id="comp2" xmlns="http://www.w3.org/2000/svg"><g clip-path="url(#ba)" fill="#737680"><path d="M34.228 8.643h3.01v12.133h-3.01V8.643zm4.21 7.569c0-3.005 1.874-4.807 4.687-4.807s4.688 1.802 4.688 4.807c0 3.005-1.81 4.825-4.688 4.825-2.878 0-4.688-1.754-4.688-4.825zm6.393 0c0-1.652-.647-2.623-1.678-2.623s-1.669.934-1.669 2.623c0 1.69.638 2.613 1.67 2.613 1.03 0 1.696-.924 1.696-2.604l-.019-.009zm4.181 5.19h2.907a1.552 1.552 0 0 0 1.631.933c1.153 0 1.753-.616 1.753-1.531v-1.68h.01a2.87 2.87 0 0 1-1.152 1.25 2.888 2.888 0 0 1-1.661.383c-2.203 0-3.666-1.67-3.666-4.545s1.397-4.667 3.75-4.667a2.888 2.888 0 0 1 1.688.437c.504.316.897.78 1.125 1.327h-.084V11.62h2.98v9.09c0 2.194-1.95 3.566-4.818 3.566-2.606-.01-4.275-1.195-4.444-2.865l-.018-.01zm6.3-5.19c0-1.465-.674-2.39-1.743-2.39s-1.725.934-1.725 2.39.647 2.315 1.725 2.315 1.743-.794 1.743-2.315zm4.172 0c0-3.005 1.875-4.807 4.688-4.807 2.812 0 4.687 1.802 4.687 4.807 0 3.005-1.818 4.825-4.687 4.825s-4.669-1.754-4.669-4.825h-.019zm6.394 0c0-1.652-.656-2.623-1.678-2.623-1.022 0-1.669.934-1.669 2.623 0 1.69.638 2.613 1.669 2.613 1.031 0 1.697-.924 1.697-2.604l-.019-.009zm4.2-6.804a1.525 1.525 0 0 1 .902-1.46 1.544 1.544 0 0 1 1.697.289 1.53 1.53 0 0 1 .364 1.675 1.532 1.532 0 0 1-1.425.961 1.489 1.489 0 0 1-1.065-.412 1.473 1.473 0 0 1-.454-1.044l-.019-.009zm0 2.203h3.047v9.202h-3l-.047-9.202zm14.006 4.601c0 2.996-1.35 4.732-3.647 4.732a2.888 2.888 0 0 1-1.675-.414 2.87 2.87 0 0 1-1.137-1.294h-.056v4.536h-3.01V11.639h2.991v1.642h.056a2.887 2.887 0 0 1 1.125-1.329 2.906 2.906 0 0 1 1.688-.444c2.362-.019 3.722 1.708 3.722 4.713l-.057-.009zm-3.065 0c0-1.456-.685-2.399-1.744-2.399-1.06 0-1.725.934-1.734 2.399-.01 1.465.675 2.39 1.734 2.39 1.06 0 1.8-.869 1.8-2.38l-.056-.01zm8.203-4.816c2.522 0 4.087 1.185 4.106 3.09h-2.747c0-.663-.553-1.074-1.378-1.074-.825 0-1.219.317-1.219.793 0 .476.347.626 1.041.766l1.931.392c1.875.392 2.625 1.138 2.625 2.529 0 1.867-1.734 3.136-4.312 3.136-2.578 0-4.257-1.232-4.378-3.108h2.915c.085.681.628 1.083 1.51 1.083.88 0 1.293-.28 1.293-.775s-.28-.579-1.003-.728l-1.743-.364c-1.81-.383-2.757-1.325-2.757-2.735.056-1.829 1.632-2.996 4.172-2.996l-.056-.009zm14.437 9.408h-2.915v-1.727h-.056a2.635 2.635 0 0 1-1.008 1.427c-.49.348-1.083.52-1.683.487a3.228 3.228 0 0 1-2.434-.993 3.194 3.194 0 0 1-.876-2.47V11.62h3.01v5.264c0 1.083.572 1.67 1.51 1.67a1.545 1.545 0 0 0 1.155-.534 1.52 1.52 0 0 0 .354-1.22v-5.18h3l-.057 9.184zm1.454-9.193h2.925v1.773h.065a2.665 2.665 0 0 1 .985-1.418 2.69 2.69 0 0 1 1.65-.523 2.407 2.407 0 0 1 1.663.48c.475.361.797.885.905 1.47h.132a2.796 2.796 0 0 1 1.073-1.45 2.82 2.82 0 0 1 1.739-.5 2.935 2.935 0 0 1 2.217.888 2.91 2.91 0 0 1 .811 2.238v6.244h-3.028v-5.478c0-.934-.441-1.456-1.294-1.456a1.318 1.318 0 0 0-1.278.927c-.054.18-.069.37-.044.557v5.45h-2.868v-5.506c0-.934-.46-1.428-1.285-1.428a1.347 1.347 0 0 0-1.013.448 1.339 1.339 0 0 0-.327 1.054v5.432h-3.01l-.018-9.202zM28.275 9.436a9.193 9.193 0 0 0-1.616-5.205A9.256 9.256 0 0 0 22.373.842a9.301 9.301 0 0 0-5.46-.388 9.272 9.272 0 0 0-4.726 2.747H.488v24.584h24.704V16.296a9.217 9.217 0 0 0 2.277-3.103 9.177 9.177 0 0 0 .807-3.757zm-4.753 0a4.49 4.49 0 0 1-.757 2.502 4.515 4.515 0 0 1-2.026 1.66 4.538 4.538 0 0 1-4.928-.968 4.48 4.48 0 0 1-.984-4.904 4.503 4.503 0 0 1 1.665-2.02 4.533 4.533 0 0 1 5.703.555 4.488 4.488 0 0 1 1.327 3.175zm-3.084 13.617H5.24V7.933h4.63a8.912 8.912 0 0 0-.14 1.503 9.22 9.22 0 0 0 2.719 6.524 9.303 9.303 0 0 0 6.553 2.707 9.19 9.19 0 0 0 1.434-.122v4.508z"/></g><defs><clipPath id="ba"><path fill="#fff" d="M0 0h120v28H0z"/></clipPath></defs></svg><svg fill="none" viewBox="0 0 120 28" id="comp3" xmlns="http://www.w3.org/2000/svg"><g clip-path="url(#ca)" fill="#737680"><path d="M34.87 8.07h3V20.2h-3V8.07zm4.19 7.55c0-3 1.84-4.79 4.68-4.79s4.68 1.79 4.68 4.79-1.8 4.8-4.68 4.8-4.68-1.75-4.68-4.8zm6.35 0c0-1.65-.65-2.62-1.67-2.62s-1.66 1-1.66 2.62.63 2.6 1.66 2.6c1.03 0 1.67-.92 1.67-2.59v-.01zm4.14 5.17h2.88a1.55 1.55 0 0 0 1.62.9c1.14 0 1.74-.62 1.74-1.52v-1.68h-.06A2.84 2.84 0 0 1 53 20.13c-2.19 0-3.64-1.67-3.64-4.54s1.38-4.68 3.68-4.68a2.87 2.87 0 0 1 2.76 1.76V11h3v9.1c0 2.19-1.93 3.55-4.78 3.55-2.65 0-4.3-1.19-4.47-2.85v-.01zm6.25-5.18c0-1.46-.67-2.38-1.73-2.38s-1.71.91-1.71 2.38c0 1.47.64 2.3 1.71 2.3 1.07 0 1.73-.81 1.73-2.29v-.01zm4.13 0c0-3 1.84-4.79 4.68-4.79s4.69 1.79 4.69 4.79-1.8 4.8-4.69 4.8c-2.89 0-4.68-1.74-4.68-4.79v-.01zm6.35 0c0-1.65-.65-2.62-1.67-2.62S63 14 63 15.63c0 1.63.63 2.6 1.65 2.6s1.63-.93 1.63-2.6v-.02zm4.16-6.79A1.53 1.53 0 1 1 72 10.31a1.46 1.46 0 0 1-1.56-1.47v-.02zm0 2.2h3v9.18h-3v-9.18zm13.89 4.59c0 3-1.33 4.71-3.61 4.71a2.86 2.86 0 0 1-2.8-1.7h-.06v4.52h-3V11h3v1.64h.06a2.87 2.87 0 0 1 2.78-1.77c2.3.04 3.67 1.76 3.67 4.76l-.04-.02zm-3 0c0-1.46-.67-2.39-1.72-2.39-1.05 0-1.72.94-1.73 2.39-.01 1.45.68 2.38 1.73 2.38 1.05 0 1.72-.91 1.72-2.36v-.02zm8.15-4.8c2.49 0 4 1.18 4.07 3.07h-2.73c0-.65-.54-1.06-1.37-1.06-.83 0-1.2.32-1.2.79 0 .47.33.62 1 .76l1.92.39c1.83.39 2.61 1.13 2.61 2.52 0 1.9-1.73 3.12-4.28 3.12-2.55 0-4.22-1.22-4.35-3.09h2.89c.09.68.63 1.08 1.51 1.08s1.28-.29 1.28-.77c0-.48-.28-.58-1-.73l-1.73-.37c-1.79-.37-2.73-1.32-2.73-2.72.02-1.8 1.63-2.97 4.11-2.97v-.02zm14.31 9.37h-2.89v-1.71h-.06a2.61 2.61 0 0 1-2.66 1.91 3.19 3.19 0 0 1-3.36-3.45V11h3v5.24c0 1.09.56 1.67 1.49 1.67a1.53 1.53 0 0 0 1.52-1.73V11h3l-.04 9.18zm1.45-9.18h2.9v1.77h.06a2.66 2.66 0 0 1 2.61-1.94 2.39 2.39 0 0 1 2.55 2h.06a2.816 2.816 0 0 1 2.82-2 2.907 2.907 0 0 1 2.835 1.92c.138.384.195.793.165 1.2v6.25h-3v-5.45c0-1-.45-1.46-1.29-1.46a1.31 1.31 0 0 0-1.31 1.48v5.43h-2.85v-5.49c0-.92-.45-1.42-1.27-1.42a1.338 1.338 0 0 0-1.33 1.5v5.41h-3l.05-9.2zM26.48 8.62a13.252 13.252 0 0 0-2-3.22A13.53 13.53 0 1 0 5.8 24.72 13.09 13.09 0 0 0 9 26.55a13.39 13.39 0 0 0 5.07 1A13.56 13.56 0 0 0 27.6 14a13.39 13.39 0 0 0-1.12-5.38zM14.06 3.19c1.561 0 3.104.341 4.52 1a4.39 4.39 0 0 1-1.08.31 5.73 5.73 0 0 0-4.85 4.85A3 3 0 0 1 9.94 12a5.73 5.73 0 0 0-4.85 4.85 2.91 2.91 0 0 1-.79 1.74 10.8 10.8 0 0 1 9.77-15.42l-.01.02zM5.79 21c.12-.11.24-.21.36-.33a5.48 5.48 0 0 0 1.62-3.23 2.92 2.92 0 0 1 .87-1.82 2.83 2.83 0 0 1 1.81-.86 5.73 5.73 0 0 0 4.85-4.85A2.92 2.92 0 0 1 16.17 8 2.87 2.87 0 0 1 18 7.17a5.48 5.48 0 0 0 3-1.43 10.512 10.512 0 0 1 2.36 2.78.86.86 0 0 1-.13.14 2.87 2.87 0 0 1-1.81.88 5.71 5.71 0 0 0-4.85 4.85 3 3 0 0 1-2.69 2.68A5.76 5.76 0 0 0 9 21.92a3.14 3.14 0 0 1-.49 1.37A10.89 10.89 0 0 1 5.79 21zm8.27 3.86a10.84 10.84 0 0 1-3-.42c.334-.622.55-1.3.64-2a3 3 0 0 1 2.68-2.68 5.73 5.73 0 0 0 4.86-4.85 3 3 0 0 1 2.68-2.68 5.71 5.71 0 0 0 2.56-1 10.821 10.821 0 0 1-10.42 13.58v.05z"/></g><defs><clipPath id="ca"><path fill="#fff" d="M0 0h120v28H0z"/></clipPath></defs></svg><svg fill="none" viewBox="0 0 120 25" id="comp4" xmlns="http://www.w3.org/2000/svg"><g clip-path="url(#da)" fill="#737680"><path d="M18.017 11.046a3.288 3.288 0 0 0-.923 2.615l-.016-.016a3.922 3.922 0 0 1-.22 1.658 3.887 3.887 0 0 1-.89 1.41 3.83 3.83 0 0 1-1.393.9 3.791 3.791 0 0 1-1.639.223l.016.016a3.214 3.214 0 0 0-1.912.419 3.27 3.27 0 0 0-1.326 1.455 3.32 3.32 0 0 0 .643 3.719 3.233 3.233 0 0 0 1.737.912 3.21 3.21 0 0 0 1.939-.264 3.26 3.26 0 0 0 1.437-1.343 3.316 3.316 0 0 0 .412-1.936l.017.016a3.92 3.92 0 0 1 .22-1.658c.191-.53.495-1.011.89-1.41a3.791 3.791 0 0 1 3.033-1.122l-.018-.017c.543.05 1.09-.04 1.59-.262a3.233 3.233 0 0 0 1.267-1.004 3.312 3.312 0 0 0 .477-3.119 3.277 3.277 0 0 0-.909-1.344 3.202 3.202 0 0 0-3.046-.68c-.523.154-.999.44-1.384.832h-.002zm-6.509 4.7-.017-.016a3.17 3.17 0 0 0 2.586-.932A3.276 3.276 0 0 0 15 12.182l.017.016a3.923 3.923 0 0 1 .22-1.658c.191-.53.495-1.011.889-1.41a3.8 3.8 0 0 1 1.394-.9 3.79 3.79 0 0 1 1.639-.223l-.017-.016a3.214 3.214 0 0 0 1.913-.418 3.27 3.27 0 0 0 1.327-1.454 3.318 3.318 0 0 0-.642-3.72 3.21 3.21 0 0 0-3.676-.65 3.26 3.26 0 0 0-1.437 1.344 3.317 3.317 0 0 0-.413 1.936l-.016-.017A3.918 3.918 0 0 1 15.09 8.08c-.395.399-.87.706-1.394.9a3.792 3.792 0 0 1-1.64.222l.016.017a3.17 3.17 0 0 0-2.585.932 3.25 3.25 0 0 0-.923 2.616l-.017-.016a3.923 3.923 0 0 1-.22 1.658 3.886 3.886 0 0 1-.889 1.41 3.83 3.83 0 0 1-1.394.9 3.794 3.794 0 0 1-1.638.223l.016.016a3.213 3.213 0 0 0-1.913.418A3.27 3.27 0 0 0 1.18 18.83a3.32 3.32 0 0 0 .642 3.72 3.21 3.21 0 0 0 3.676.65 3.26 3.26 0 0 0 1.437-1.344 3.316 3.316 0 0 0 .413-1.935l.017.015a3.921 3.921 0 0 1 .22-1.658c.191-.53.495-1.011.889-1.41a3.8 3.8 0 0 1 1.394-.9 3.79 3.79 0 0 1 1.639-.223zm-5.914-1.792a3.287 3.287 0 0 0 .922-2.615l.017.016a3.921 3.921 0 0 1 .22-1.659 3.868 3.868 0 0 1 2.284-2.31 3.791 3.791 0 0 1 1.64-.222l-.017-.016a3.213 3.213 0 0 0 1.912-.418 3.269 3.269 0 0 0 1.327-1.454 3.319 3.319 0 0 0-.642-3.718 3.21 3.21 0 0 0-3.674-.65 3.26 3.26 0 0 0-1.438 1.343 3.315 3.315 0 0 0-.413 1.935l-.016-.016a3.921 3.921 0 0 1-.22 1.658 3.885 3.885 0 0 1-.889 1.41 3.8 3.8 0 0 1-1.394.9 3.791 3.791 0 0 1-1.639.223l.016.016a3.19 3.19 0 0 0-1.589.262A3.252 3.252 0 0 0 .733 9.643a3.314 3.314 0 0 0-.476 3.119c.187.518.5.98.91 1.345a3.203 3.203 0 0 0 3.046.68 3.236 3.236 0 0 0 1.383-.833h-.002zM32.927 5.05h2.62v12.904h-2.62V5.049zm4.105 8.485a4.724 4.724 0 0 1 .77-2.608 4.642 4.642 0 0 1 2.075-1.734 4.58 4.58 0 0 1 2.676-.274c.9.179 1.726.623 2.375 1.278a4.703 4.703 0 0 1 1.273 2.398c.18.91.09 1.852-.26 2.71a4.674 4.674 0 0 1-1.706 2.105 4.591 4.591 0 0 1-2.574.79 4.532 4.532 0 0 1-1.775-.34 4.574 4.574 0 0 1-1.507-1.009 4.634 4.634 0 0 1-1.004-1.52 4.679 4.679 0 0 1-.343-1.796zm6.638 0a2.05 2.05 0 0 0-.365-1.115 2.014 2.014 0 0 0-.913-.724 1.988 1.988 0 0 0-2.172.477 2.056 2.056 0 0 0-.41 2.21c.153.368.41.682.74.903.33.221.716.339 1.111.339a1.938 1.938 0 0 0 1.457-.6 1.987 1.987 0 0 0 .552-1.49zm13.065-4.42v8.393c0 2.97-2.288 4.225-4.612 4.225a4.422 4.422 0 0 1-2.367-.483 4.488 4.488 0 0 1-1.773-1.66l2.236-1.308c.18.369.468.673.824.872.356.2.763.283 1.168.242a1.72 1.72 0 0 0 1.435-.466 1.762 1.762 0 0 0 .538-1.425v-.809a3.073 3.073 0 0 1-2.55 1.15 4.415 4.415 0 0 1-3.049-1.364 4.52 4.52 0 0 1-1.25-3.126 4.52 4.52 0 0 1 1.25-3.126 4.415 4.415 0 0 1 3.048-1.364 3.07 3.07 0 0 1 1.411.268c.443.2.834.501 1.14.881v-.902l2.551.002zm-2.55 4.242a2.163 2.163 0 0 0-.313-1.214 2.125 2.125 0 0 0-.932-.829 2.094 2.094 0 0 0-2.337.408 2.166 2.166 0 0 0-.497 2.347c.157.397.43.737.78.976a2.1 2.1 0 0 0 1.186.366 1.954 1.954 0 0 0 1.507-.553 2.001 2.001 0 0 0 .606-1.5zm4.035.178a4.724 4.724 0 0 1 .77-2.608 4.643 4.643 0 0 1 2.075-1.734 4.58 4.58 0 0 1 2.676-.274c.9.179 1.726.623 2.375 1.278a4.702 4.702 0 0 1 1.272 2.398c.18.91.09 1.852-.26 2.71a4.673 4.673 0 0 1-1.705 2.105 4.592 4.592 0 0 1-2.574.79 4.532 4.532 0 0 1-1.775-.34 4.576 4.576 0 0 1-1.508-1.009 4.636 4.636 0 0 1-1.003-1.52 4.68 4.68 0 0 1-.344-1.796zm6.638 0a2.052 2.052 0 0 0-.365-1.115 2.015 2.015 0 0 0-.913-.724 1.988 1.988 0 0 0-2.172.477 2.056 2.056 0 0 0-.41 2.21c.153.368.41.682.74.903.33.221.716.339 1.111.339a1.938 1.938 0 0 0 1.457-.6 1.987 1.987 0 0 0 .552-1.49zM68.7 6.746c0-.314.093-.622.266-.884.173-.261.418-.465.706-.586a1.555 1.555 0 0 1 1.713.345 1.597 1.597 0 0 1 .341 1.734c-.119.291-.32.54-.58.714a1.559 1.559 0 0 1-.873.268 1.58 1.58 0 0 1-1.107-.47c-.294-.298-.46-.7-.465-1.12zm.266 2.37h2.621v8.838h-2.625l.004-8.839zm13.936 4.419a4.486 4.486 0 0 1-1.129 3.211 4.389 4.389 0 0 1-1.38 1.035 4.323 4.323 0 0 1-1.666.42 3.243 3.243 0 0 1-1.421-.243 3.276 3.276 0 0 1-1.181-.836v4.367h-2.62V9.115h2.62v.83a3.28 3.28 0 0 1 1.181-.835 3.25 3.25 0 0 1 1.421-.242 4.371 4.371 0 0 1 3.047 1.454 4.485 4.485 0 0 1 1.128 3.212zm-2.62 0a2.12 2.12 0 0 0-.376-1.154 2.083 2.083 0 0 0-.943-.752 2.055 2.055 0 0 0-2.248.49 2.126 2.126 0 0 0-.427 2.286c.159.381.425.707.766.935.341.23.74.351 1.15.351a1.972 1.972 0 0 0 1.516-.607 2.02 2.02 0 0 0 .562-1.55zm10.708 1.767c0 2.033-1.747 2.899-3.633 2.899a3.788 3.788 0 0 1-2.198-.468 3.851 3.851 0 0 1-1.559-1.636l2.27-1.308c.093.32.29.597.56.787.27.19.595.28.923.256.628 0 .943-.195.943-.547 0-.973-4.298-.46-4.298-3.518 0-1.928 1.608-2.9 3.425-2.9a3.783 3.783 0 0 1 1.958.475 3.846 3.846 0 0 1 1.448 1.417l-2.236 1.22a1.279 1.279 0 0 0-.47-.567 1.257 1.257 0 0 0-.7-.211c-.455 0-.734.178-.734.494.003 1.009 4.3.336 4.3 3.607zm9.572-6.187v8.84h-2.62v-.832a2.99 2.99 0 0 1-1.121.843 2.952 2.952 0 0 1-1.377.236c-1.765 0-3.265-1.273-3.265-3.66V9.114H94.8v5.038a1.468 1.468 0 0 0 .392 1.16 1.438 1.438 0 0 0 1.127.447c.961 0 1.625-.565 1.625-1.82V9.117l2.618-.003zm15.026 3.412v5.427h-2.62v-5.198c0-.884-.419-1.449-1.258-1.449-.873 0-1.363.619-1.363 1.662v4.985h-2.62v-5.198c0-.884-.419-1.449-1.258-1.449-.873 0-1.362.619-1.362 1.662v4.985h-2.621v-8.84h2.621v.813c.272-.36.628-.647 1.037-.832a2.654 2.654 0 0 1 1.304-.228 2.583 2.583 0 0 1 2.288 1.166 2.875 2.875 0 0 1 2.533-1.166c2.005 0 3.319 1.45 3.319 3.66zm2.217-3.467a1.956 1.956 0 0 0 1.944-1.967c0-1.087-.87-1.968-1.944-1.968a1.957 1.957 0 0 0-1.945 1.968c0 1.087.871 1.968 1.945 1.968z"/></g><defs><clipPath id="da"><path fill="#fff" d="M0 0h120v25H0z"/></clipPath></defs></svg><svg fill="none" viewBox="0 0 120 24" id="comp5" xmlns="http://www.w3.org/2000/svg"><g clip-path="url(#ea)" fill="#737680"><path d="M38.522 19.39a2.729 2.729 0 0 1-1.698-.48 1.566 1.566 0 0 1-.485-.577 1.538 1.538 0 0 1-.156-.733V8.33a.255.255 0 0 1 .075-.216.265.265 0 0 1 .22-.074h1.708c.194 0 .285.1.285.29v8.55c0 .38.173.57.529.57.15.006.302-.01.447-.05.204 0 .316.06.326.24l.152 1.25a.258.258 0 0 1-.136.28.269.269 0 0 1-.108.03 3.896 3.896 0 0 1-1.159.19zm9.61-1.07a4.84 4.84 0 0 1-3.05 1.079 4.84 4.84 0 0 1-3.051-1.079 3.966 3.966 0 0 1-1.178-2.815c0-1.054.423-2.066 1.178-2.815a4.86 4.86 0 0 1 3.05-1.073c1.113 0 2.191.38 3.051 1.073a4.024 4.024 0 0 1 1.149 2.81 4.024 4.024 0 0 1-1.149 2.81v.01zM43.637 17c.399.355.917.551 1.455.551.537 0 1.055-.196 1.454-.551.36-.408.559-.93.559-1.47 0-.54-.199-1.062-.56-1.47a2.186 2.186 0 0 0-1.453-.551c-.538 0-1.056.196-1.455.551-.36.408-.559.93-.559 1.47 0 .54.199 1.062.56 1.47zm15.051-5.13c.193 0 .285.1.285.29v7.17a3.21 3.21 0 0 1-.27 1.41 3.261 3.261 0 0 1-.859 1.16 4.317 4.317 0 0 1-2.96 1 4.82 4.82 0 0 1-2.755-.75 3.027 3.027 0 0 1-.878-.864 2.97 2.97 0 0 1-.454-1.136c0-.2 0-.29.274-.29h1.709a.38.38 0 0 1 .335.23c.111.304.332.556.62.71a2.42 2.42 0 0 0 1.14.26 1.827 1.827 0 0 0 1.311-.46 1.698 1.698 0 0 0 .478-1.25v-.63a3.447 3.447 0 0 1-2.115.65 4.006 4.006 0 0 1-1.557-.255 3.955 3.955 0 0 1-1.331-.835 3.965 3.965 0 0 1-1.143-2.78c0-1.037.41-2.034 1.143-2.78.384-.36.837-.642 1.333-.827a4.037 4.037 0 0 1 1.555-.253 3.455 3.455 0 0 1 2.166.69v-.16a.257.257 0 0 1 .17-.274.268.268 0 0 1 .115-.016l1.688-.01zm-3.946 5.72a1.816 1.816 0 0 0 1.394-.59 2.424 2.424 0 0 0 0-3 1.806 1.806 0 0 0-1.383-.58 1.858 1.858 0 0 0-1.414.59c-.375.41-.572.949-.55 1.5a2.138 2.138 0 0 0 .54 1.49c.178.193.397.345.641.447.244.102.507.15.772.143zm13.008.73a4.86 4.86 0 0 1-3.052 1.073 4.86 4.86 0 0 1-3.05-1.073 4.034 4.034 0 0 1-1.15-2.815c0-1.049.412-2.057 1.15-2.815a4.87 4.87 0 0 1 3.05-1.07c1.112 0 2.19.378 3.051 1.07a4.024 4.024 0 0 1 1.149 2.81 4.024 4.024 0 0 1-1.149 2.81v.01zM63.243 17a2.038 2.038 0 0 0 1.465.55 2.066 2.066 0 0 0 1.454-.55c.354-.41.55-.931.55-1.47a2.25 2.25 0 0 0-.55-1.47 2.039 2.039 0 0 0-1.454-.55 2.064 2.064 0 0 0-1.465.55c-.355.41-.55.931-.55 1.47 0 .539.195 1.06.55 1.47zm9.327-6.83a1.489 1.489 0 0 1-1.943 0 1.211 1.211 0 0 1-.386-.88 1.194 1.194 0 0 1 .386-.88 1.52 1.52 0 0 1 1.943 0 1.21 1.21 0 0 1 .385.88 1.192 1.192 0 0 1-.385.88zm.213 9.22a2.769 2.769 0 0 1-1.698-.48 1.584 1.584 0 0 1-.477-.58 1.557 1.557 0 0 1-.154-.73v-5.44a.255.255 0 0 1 .076-.216.265.265 0 0 1 .22-.074h1.708c.193 0 .284.1.284.29v4.72c0 .38.173.57.519.57a1.6 1.6 0 0 0 .458-.05c.203 0 .315.06.325.24l.153 1.25a.256.256 0 0 1-.136.28.268.268 0 0 1-.108.03 3.91 3.91 0 0 1-1.17.19zm7.698-7.76a4.049 4.049 0 0 1 1.566.25c.5.185.956.468 1.343.83a4.063 4.063 0 0 1 1.119 2.795 4.06 4.06 0 0 1-1.12 2.795 4.007 4.007 0 0 1-2.908 1.09 3.54 3.54 0 0 1-2.125-.65v3.61c0 .19-.102.28-.295.28h-1.709a.247.247 0 0 1-.277-.165.235.235 0 0 1-.007-.115v-8.2a.51.51 0 0 0-.15-.443.53.53 0 0 0-.45-.147h-.336c-.224 0-.335-.08-.335-.24v-1.18a.315.315 0 0 1 .057-.206.325.325 0 0 1 .177-.124 3.1 3.1 0 0 1 1.098-.18c.373-.033.748.045 1.075.223.328.179.595.449.766.777a3.43 3.43 0 0 1 1.15-.755 3.478 3.478 0 0 1 1.361-.245zM78.895 17a1.97 1.97 0 0 0 2.807 0 2.14 2.14 0 0 0 .559-1.53 2.109 2.109 0 0 0-.56-1.53 1.945 1.945 0 0 0-1.403-.59 1.97 1.97 0 0 0-1.403.59c-.37.425-.563.971-.54 1.53-.02.558.172 1.104.54 1.53zm10.413 2.39a4.968 4.968 0 0 1-2.613-.62 2.463 2.463 0 0 1-.795-.753A2.414 2.414 0 0 1 85.515 17c0-.2.071-.3.295-.3h1.495a.39.39 0 0 1 .336.22c.213.54.773.81 1.667.81a1.93 1.93 0 0 0 .906-.18.588.588 0 0 0 .345-.49c0-.26-.162-.44-.488-.56a5.584 5.584 0 0 0-1.19-.25c-.48-.053-.955-.137-1.423-.25a2.348 2.348 0 0 1-1.19-.67 2.129 2.129 0 0 1-.467-1.643 2.128 2.128 0 0 1 .904-1.457 4.244 4.244 0 0 1 2.461-.64 4.556 4.556 0 0 1 2.4.59 2.222 2.222 0 0 1 1.119 1.57c0 .2-.092.3-.275.3h-1.505a.32.32 0 0 1-.305-.18c-.1-.237-.29-.427-.529-.53a1.815 1.815 0 0 0-.874-.2 1.796 1.796 0 0 0-.865.17.507.507 0 0 0-.325.46.634.634 0 0 0 .145.374.653.653 0 0 0 .343.216c.39.145.796.245 1.21.3.476.062.948.148 1.414.26.455.101.87.335 1.19.67a1.887 1.887 0 0 1 .498 1.37 1.98 1.98 0 0 1-.24.993 2.008 2.008 0 0 1-.706.747 4.5 4.5 0 0 1-2.553.69zm14.248-.5a.274.274 0 0 1-.004.107.272.272 0 0 1-.127.168.279.279 0 0 1-.103.035c-.371.12-.759.183-1.149.19a2.29 2.29 0 0 1-1.133-.172 2.246 2.246 0 0 1-.901-.698 3.721 3.721 0 0 1-2.593.87c-.44.02-.878-.05-1.288-.207a3.158 3.158 0 0 1-1.092-.703 3.272 3.272 0 0 1-.702-1.114 3.232 3.232 0 0 1-.203-1.296v-3.91c0-.19.092-.29.285-.29h1.708c.194 0 .285.1.285.29v3.61c-.019.45.138.89.437 1.23a1.526 1.526 0 0 0 1.17.47 1.715 1.715 0 0 0 1.22-.44 1.596 1.596 0 0 0 .458-1.19v-3.68c0-.19.091-.29.284-.29h1.729c.194 0 .285.1.285.29v4.71c0 .39.173.58.509.58.157.006.315-.01.467-.05a.27.27 0 0 1 .227.04.243.243 0 0 1 .077.088c.02.034.03.073.032.112l.122 1.25zm16.159 0c.009.036.01.073.003.11a.253.253 0 0 1-.237.2 4 4 0 0 1-1.169.19 2.748 2.748 0 0 1-1.698-.48 1.565 1.565 0 0 1-.508-.571 1.535 1.535 0 0 1-.174-.739v-2.35a1.748 1.748 0 0 0-.427-1.23 1.444 1.444 0 0 0-1.139-.47 1.293 1.293 0 0 0-1.017.44 1.758 1.758 0 0 0-.386 1.18v3.69c0 .19-.092.29-.285.29h-1.719a.266.266 0 0 1-.282-.173.244.244 0 0 1-.013-.117v-3.61a1.83 1.83 0 0 0-.396-1.23 1.335 1.335 0 0 0-1.017-.47 1.496 1.496 0 0 0-1.119.44c-.291.324-.44.748-.417 1.18v3.69a.256.256 0 0 1-.177.278.265.265 0 0 1-.118.012h-1.657c-.193 0-.285-.1-.285-.29v-4.71a.51.51 0 0 0-.149-.443.532.532 0 0 0-.451-.147h-.336c-.223 0-.335-.08-.335-.24v-1.18a.325.325 0 0 1 .234-.33 3.098 3.098 0 0 1 1.098-.18c.359-.03.72.04 1.04.203.321.163.587.411.77.717a3.45 3.45 0 0 1 1.194-.725 3.49 3.49 0 0 1 1.389-.195 2.96 2.96 0 0 1 1.334.247c.418.184.788.462 1.076.813.337-.36.751-.641 1.212-.825.46-.183.957-.263 1.453-.235a3.23 3.23 0 0 1 2.41.91 3.221 3.221 0 0 1 .905 2.41v1.93c0 .38.173.57.498.57.158.007.316-.01.468-.05.211 0 .323.08.336.24l.091 1.25zM.468 10.57a13.672 13.672 0 0 1 4.936-7.48A14.074 14.074 0 0 1 13.978.185c3.107 0 6.126 1.023 8.574 2.905a13.672 13.672 0 0 1 4.936 7.48h-1.22a9.973 9.973 0 0 0-5.766 1.73c-.098.07-.2.133-.305.19h-.143a2.905 2.905 0 0 1-.305-.19 10.467 10.467 0 0 0-5.771-1.73c-2.056 0-4.065.602-5.771 1.73-.098.07-.2.133-.305.19h-.143a2.904 2.904 0 0 1-.305-.19 9.973 9.973 0 0 0-5.766-1.73H.468zm23.603 6.27a3.466 3.466 0 0 1 2.197-.71h1.637v-3.21h-1.637a6.564 6.564 0 0 0-3.895 1.22 3.744 3.744 0 0 1-2.197.71c-.79 0-1.56-.249-2.196-.71a6.997 6.997 0 0 0-3.951-1.219 6.997 6.997 0 0 0-3.951 1.219 3.744 3.744 0 0 1-2.197.71c-.79 0-1.56-.249-2.196-.71a6.565 6.565 0 0 0-3.946-1.22H.05v3.21h1.637a3.47 3.47 0 0 1 2.197.71 6.976 6.976 0 0 0 3.945 1.22 6.976 6.976 0 0 0 3.946-1.22 3.487 3.487 0 0 1 2.197-.71 3.445 3.445 0 0 1 2.196.71 6.997 6.997 0 0 0 3.951 1.22 6.996 6.996 0 0 0 3.951-1.22zm0 5.74a3.466 3.466 0 0 1 2.197-.71h1.637v-3.21h-1.637a6.564 6.564 0 0 0-3.895 1.22 3.744 3.744 0 0 1-2.197.71c-.79 0-1.56-.249-2.196-.71a6.997 6.997 0 0 0-3.951-1.219 6.997 6.997 0 0 0-3.951 1.219 3.744 3.744 0 0 1-2.197.71c-.79 0-1.56-.249-2.196-.71a6.565 6.565 0 0 0-3.946-1.22H.05v3.21h1.637a3.47 3.47 0 0 1 2.197.71A6.976 6.976 0 0 0 7.83 23.8a6.976 6.976 0 0 0 3.946-1.22 3.487 3.487 0 0 1 2.197-.71 3.445 3.445 0 0 1 2.196.71 6.997 6.997 0 0 0 3.951 1.22 6.996 6.996 0 0 0 3.951-1.22z"/></g><defs><clipPath id="ea"><path fill="#fff" d="M0 0h120v24H0z"/></clipPath></defs></svg><svg fill="none" viewBox="0 0 24 24" id="facebook" xmlns="http://www.w3.org/2000/svg"><path d="M16.5 6h-3a1 1 0 0 0-1 1v3h4a.35.35 0 0 1 .34.46l-.74 2.2a.5.5 0 0 1-.47.34H12.5v7.5a.5.5 0 0 1-.5.5H9.5a.5.5 0 0 1-.5-.5V13H7.5a.5.5 0 0 1-.5-.5v-2a.5.5 0 0 1 .5-.5H9V7a4 4 0 0 1 4-4h3.5a.5.5 0 0 1 .5.5v2a.5.5 0 0 1-.5.5z" fill="#2A2C1F"/></svg><svg fill="none" viewBox="0 0 24 24" id="instagram" xmlns="http://www.w3.org/2000/svg"><path fill-rule="evenodd" clip-rule="evenodd" d="M16 3H8a5 5 0 0 0-5 5v8a5 5 0 0 0 5 5h8a5 5 0 0 0 5-5V8a5 5 0 0 0-5-5zm3.25 13A3.26 3.26 0 0 1 16 19.25H8A3.26 3.26 0 0 1 4.75 16V8A3.26 3.26 0 0 1 8 4.75h8A3.26 3.26 0 0 1 19.25 8v8zm-2.5-7.75a1 1 0 1 0 0-2 1 1 0 0 0 0 2zM12 7.5a4.5 4.5 0 1 0 4.5 4.5A4.49 4.49 0 0 0 12 7.5zM9.25 12a2.75 2.75 0 1 0 5.5 0 2.75 2.75 0 0 0-5.5 0z" fill="#2A2C1F"/></svg><svg fill="none" viewBox="0 0 135 147" id="main-corners" xmlns="http://www.w3.org/2000/svg"><g clip-path="url(#ha)"><path d="M0 146.608h45v-48.87h45V48.87h45V0H0v146.608z" fill="#E7E8E3"/></g><defs><clipPath id="ha"><path fill="#fff" d="M0 0h135v147H0z"/></clipPath></defs></svg><svg fill="none" viewBox="0 0 24 24" id="something" xmlns="http://www.w3.org/2000/svg"><path fill-rule="evenodd" clip-rule="evenodd" d="M5 3h14a2 2 0 0 1 2 2v14a2 2 0 0 1-2 2H5a2 2 0 0 1-2-2V5a2 2 0 0 1 2-2zm3 15a.5.5 0 0 0 .5-.5v-7A.5.5 0 0 0 8 10H6.5a.5.5 0 0 0-.5.5v7a.5.5 0 0 0 .5.5H8zm-.75-9a1.5 1.5 0 1 1 0-3 1.5 1.5 0 0 1 0 3zm10.25 9a.5.5 0 0 0 .5-.5v-4.6a3.1 3.1 0 0 0-2.72-3.14 3 3 0 0 0-2.78 1.34v-.6a.5.5 0 0 0-.5-.5h-1.5a.5.5 0 0 0-.5.5v7a.5.5 0 0 0 .5.5H12a.5.5 0 0 0 .5-.5v-3.75a1.5 1.5 0 0 1 3 0v3.75a.5.5 0 0 0 .5.5h1.5z" fill="#2A2C1F"/></svg><svg fill="none" viewBox="0 0 20 20" id="star" xmlns="http://www.w3.org/2000/svg"><g clip-path="url(#ja)"><path d="M9.07.645a.992.992 0 0 1 1.86 0l2.028 5.072c.145.362.473.61.849.641l5.266.44c.892.074 1.254 1.232.574 1.837l-4.012 3.574a1.071 1.071 0 0 0-.324 1.038l1.225 5.343c.208.906-.74 1.622-1.503 1.136l-4.508-2.863a.973.973 0 0 0-1.05 0l-4.508 2.863c-.764.486-1.711-.23-1.503-1.136l1.225-5.343a1.071 1.071 0 0 0-.324-1.038L.353 8.635c-.68-.605-.318-1.763.574-1.838l5.266-.439a1.01 1.01 0 0 0 .85-.64L9.07.644z" fill="#CF6F49"/></g><defs><clipPath id="ja"><path fill="#fff" d="M0 0h20v20H0z"/></clipPath></defs></svg><svg fill="none" viewBox="0 0 24 24" id="twitter" xmlns="http://www.w3.org/2000/svg"><path d="M20.973 6.717a7.19 7.19 0 0 1-1.663 1.6v.495a10.972 10.972 0 0 1-3.258 7.822A10.96 10.96 0 0 1 8.194 19.8a10.994 10.994 0 0 1-4.898-1.133.225.225 0 0 1-.134-.207v-.099c0-.129.104-.233.233-.233a7.96 7.96 0 0 0 4.601-1.655A3.927 3.927 0 0 1 4.5 14.171a.234.234 0 0 1 .234-.324c.46.046.923.004 1.366-.126A3.92 3.92 0 0 1 3 10.296a.234.234 0 0 1 .323-.234c.448.197.931.302 1.42.306a3.849 3.849 0 0 1-1.537-4.442.485.485 0 0 1 .818-.162 11.105 11.105 0 0 0 7.558 3.489 3.604 3.604 0 0 1-.108-.9 3.917 3.917 0 0 1 6.749-2.643 7.807 7.807 0 0 0 2.148-.746c.05-.03.112-.03.161 0a.153.153 0 0 1 0 .162 3.928 3.928 0 0 1-1.581 1.798 7.709 7.709 0 0 0 1.797-.431.144.144 0 0 1 .162 0 .153.153 0 0 1 .063.224z" fill="#2A2C1F"/></svg></svg>